solid OpenSCAD_Model
  facet normal 1 -0 0
    outer loop
      vertex -10.1 -10 -51.1
      vertex -10.1 10 -67.5
      vertex -10.1 10 -51.1
    endloop
  endfacet
  facet normal 1 0 0
    outer loop
      vertex -10.1 10 -67.5
      vertex -10.1 -10 -51.1
      vertex -10.1 -10 -67.5
    endloop
  endfacet
  facet normal 0 0 -1
    outer loop
      vertex 8.5 -10 -49.5
      vertex 2.75 0 -49.5
      vertex 8.5 10 -49.5
    endloop
  endfacet
  facet normal 0 0 -1
    outer loop
      vertex 8.5 -10 -49.5
      vertex 2.72647 -0.358947 -49.5
      vertex 2.75 0 -49.5
    endloop
  endfacet
  facet normal 0 0 -1
    outer loop
      vertex 8.5 -10 -49.5
      vertex 2.6563 -0.711752 -49.5
      vertex 2.72647 -0.358947 -49.5
    endloop
  endfacet
  facet normal 0 0 -1
    outer loop
      vertex 8.5 -10 -49.5
      vertex 2.54067 -1.05238 -49.5
      vertex 2.6563 -0.711752 -49.5
    endloop
  endfacet
  facet normal 0 0 -1
    outer loop
      vertex 8.5 -10 -49.5
      vertex 2.38157 -1.375 -49.5
      vertex 2.54067 -1.05238 -49.5
    endloop
  endfacet
  facet normal 0 0 -1
    outer loop
      vertex 8.5 -10 -49.5
      vertex 2.18172 -1.67409 -49.5
      vertex 2.38157 -1.375 -49.5
    endloop
  endfacet
  facet normal 0 0 -1
    outer loop
      vertex 8.5 -10 -49.5
      vertex 1.94454 -1.94454 -49.5
      vertex 2.18172 -1.67409 -49.5
    endloop
  endfacet
  facet normal 0 0 -1
    outer loop
      vertex 8.5 -10 -49.5
      vertex 1.67409 -2.18172 -49.5
      vertex 1.94454 -1.94454 -49.5
    endloop
  endfacet
  facet normal 0 0 -1
    outer loop
      vertex 8.5 -10 -49.5
      vertex 1.375 -2.38157 -49.5
      vertex 1.67409 -2.18172 -49.5
    endloop
  endfacet
  facet normal 0 0 -1
    outer loop
      vertex 8.5 -10 -49.5
      vertex 1.05238 -2.54067 -49.5
      vertex 1.375 -2.38157 -49.5
    endloop
  endfacet
  facet normal 0 0 -1
    outer loop
      vertex 8.5 -10 -49.5
      vertex 0.711752 -2.6563 -49.5
      vertex 1.05238 -2.54067 -49.5
    endloop
  endfacet
  facet normal 0 0 -1
    outer loop
      vertex 8.5 -10 -49.5
      vertex 0.358947 -2.72647 -49.5
      vertex 0.711752 -2.6563 -49.5
    endloop
  endfacet
  facet normal 0 0 -1
    outer loop
      vertex 8.5 -10 -49.5
      vertex 0 -2.75 -49.5
      vertex 0.358947 -2.72647 -49.5
    endloop
  endfacet
  facet normal 0 0 -1
    outer loop
      vertex -8.5 -10 -49.5
      vertex 0 -2.75 -49.5
      vertex 8.5 -10 -49.5
    endloop
  endfacet
  facet normal -0 0 -1
    outer loop
      vertex 0 -2.75 -49.5
      vertex -8.5 -10 -49.5
      vertex -0.358947 -2.72647 -49.5
    endloop
  endfacet
  facet normal -0 0 -1
    outer loop
      vertex -0.358947 -2.72647 -49.5
      vertex -8.5 -10 -49.5
      vertex -0.711752 -2.6563 -49.5
    endloop
  endfacet
  facet normal -0 0 -1
    outer loop
      vertex -0.711752 -2.6563 -49.5
      vertex -8.5 -10 -49.5
      vertex -1.05238 -2.54067 -49.5
    endloop
  endfacet
  facet normal -0 0 -1
    outer loop
      vertex -1.05238 -2.54067 -49.5
      vertex -8.5 -10 -49.5
      vertex -1.375 -2.38157 -49.5
    endloop
  endfacet
  facet normal -0 0 -1
    outer loop
      vertex -2.72647 -0.358947 -49.5
      vertex -8.5 -10 -49.5
      vertex -2.75 0 -49.5
    endloop
  endfacet
  facet normal -0 0 -1
    outer loop
      vertex -2.6563 -0.711752 -49.5
      vertex -8.5 -10 -49.5
      vertex -2.72647 -0.358947 -49.5
    endloop
  endfacet
  facet normal -0 0 -1
    outer loop
      vertex -2.54067 -1.05238 -49.5
      vertex -8.5 -10 -49.5
      vertex -2.6563 -0.711752 -49.5
    endloop
  endfacet
  facet normal -0 0 -1
    outer loop
      vertex -2.38157 -1.375 -49.5
      vertex -8.5 -10 -49.5
      vertex -2.54067 -1.05238 -49.5
    endloop
  endfacet
  facet normal -0 0 -1
    outer loop
      vertex -2.18172 -1.67409 -49.5
      vertex -8.5 -10 -49.5
      vertex -2.38157 -1.375 -49.5
    endloop
  endfacet
  facet normal -0 0 -1
    outer loop
      vertex -1.94454 -1.94454 -49.5
      vertex -8.5 -10 -49.5
      vertex -2.18172 -1.67409 -49.5
    endloop
  endfacet
  facet normal -0 0 -1
    outer loop
      vertex -1.67409 -2.18172 -49.5
      vertex -8.5 -10 -49.5
      vertex -1.94454 -1.94454 -49.5
    endloop
  endfacet
  facet normal -0 0 -1
    outer loop
      vertex -1.375 -2.38157 -49.5
      vertex -8.5 -10 -49.5
      vertex -1.67409 -2.18172 -49.5
    endloop
  endfacet
  facet normal 0 0 -1
    outer loop
      vertex 2.72647 0.358947 -49.5
      vertex 8.5 10 -49.5
      vertex 2.75 0 -49.5
    endloop
  endfacet
  facet normal 0 0 -1
    outer loop
      vertex 2.6563 0.711752 -49.5
      vertex 8.5 10 -49.5
      vertex 2.72647 0.358947 -49.5
    endloop
  endfacet
  facet normal 0 0 -1
    outer loop
      vertex 2.54067 1.05238 -49.5
      vertex 8.5 10 -49.5
      vertex 2.6563 0.711752 -49.5
    endloop
  endfacet
  facet normal 0 0 -1
    outer loop
      vertex 2.38157 1.375 -49.5
      vertex 8.5 10 -49.5
      vertex 2.54067 1.05238 -49.5
    endloop
  endfacet
  facet normal 0 0 -1
    outer loop
      vertex 2.18172 1.67409 -49.5
      vertex 8.5 10 -49.5
      vertex 2.38157 1.375 -49.5
    endloop
  endfacet
  facet normal 0 0 -1
    outer loop
      vertex 1.94454 1.94454 -49.5
      vertex 8.5 10 -49.5
      vertex 2.18172 1.67409 -49.5
    endloop
  endfacet
  facet normal 0 0 -1
    outer loop
      vertex 1.67409 2.18172 -49.5
      vertex 8.5 10 -49.5
      vertex 1.94454 1.94454 -49.5
    endloop
  endfacet
  facet normal 0 0 -1
    outer loop
      vertex 1.375 2.38157 -49.5
      vertex 8.5 10 -49.5
      vertex 1.67409 2.18172 -49.5
    endloop
  endfacet
  facet normal 0 0 -1
    outer loop
      vertex 1.05238 2.54067 -49.5
      vertex 8.5 10 -49.5
      vertex 1.375 2.38157 -49.5
    endloop
  endfacet
  facet normal 0 0 -1
    outer loop
      vertex 0.711752 2.6563 -49.5
      vertex 8.5 10 -49.5
      vertex 1.05238 2.54067 -49.5
    endloop
  endfacet
  facet normal 0 0 -1
    outer loop
      vertex 0.358947 2.72647 -49.5
      vertex 8.5 10 -49.5
      vertex 0.711752 2.6563 -49.5
    endloop
  endfacet
  facet normal 0 0 -1
    outer loop
      vertex 0 2.75 -49.5
      vertex 8.5 10 -49.5
      vertex 0.358947 2.72647 -49.5
    endloop
  endfacet
  facet normal 0 0 -1
    outer loop
      vertex -8.5 10 -49.5
      vertex 0 2.75 -49.5
      vertex -0.358947 2.72647 -49.5
    endloop
  endfacet
  facet normal 0 0 -1
    outer loop
      vertex -8.5 10 -49.5
      vertex -0.358947 2.72647 -49.5
      vertex -0.711752 2.6563 -49.5
    endloop
  endfacet
  facet normal 0 0 -1
    outer loop
      vertex -8.5 10 -49.5
      vertex -0.711752 2.6563 -49.5
      vertex -1.05238 2.54067 -49.5
    endloop
  endfacet
  facet normal 0 0 -1
    outer loop
      vertex -8.5 10 -49.5
      vertex -1.05238 2.54067 -49.5
      vertex -1.375 2.38157 -49.5
    endloop
  endfacet
  facet normal 0 0 -1
    outer loop
      vertex -8.5 10 -49.5
      vertex -1.375 2.38157 -49.5
      vertex -1.67409 2.18172 -49.5
    endloop
  endfacet
  facet normal 0 0 -1
    outer loop
      vertex -8.5 10 -49.5
      vertex -2.75 0 -49.5
      vertex -8.5 -10 -49.5
    endloop
  endfacet
  facet normal 0 0 -1
    outer loop
      vertex -2.75 0 -49.5
      vertex -8.5 10 -49.5
      vertex -2.72647 0.358947 -49.5
    endloop
  endfacet
  facet normal 0 0 -1
    outer loop
      vertex -2.72647 0.358947 -49.5
      vertex -8.5 10 -49.5
      vertex -2.6563 0.711752 -49.5
    endloop
  endfacet
  facet normal 0 0 -1
    outer loop
      vertex -2.6563 0.711752 -49.5
      vertex -8.5 10 -49.5
      vertex -2.54067 1.05238 -49.5
    endloop
  endfacet
  facet normal 0 0 -1
    outer loop
      vertex 0 2.75 -49.5
      vertex -8.5 10 -49.5
      vertex 8.5 10 -49.5
    endloop
  endfacet
  facet normal 0 0 -1
    outer loop
      vertex -1.94454 1.94454 -49.5
      vertex -8.5 10 -49.5
      vertex -1.67409 2.18172 -49.5
    endloop
  endfacet
  facet normal 0 0 -1
    outer loop
      vertex -2.18172 1.67409 -49.5
      vertex -8.5 10 -49.5
      vertex -1.94454 1.94454 -49.5
    endloop
  endfacet
  facet normal 0 0 -1
    outer loop
      vertex -2.38157 1.375 -49.5
      vertex -8.5 10 -49.5
      vertex -2.18172 1.67409 -49.5
    endloop
  endfacet
  facet normal 0 0 -1
    outer loop
      vertex -2.54067 1.05238 -49.5
      vertex -8.5 10 -49.5
      vertex -2.38157 1.375 -49.5
    endloop
  endfacet
  facet normal 0 0 -1
    outer loop
      vertex -14.1 -10 -67.5
      vertex -10.1 10 -67.5
      vertex -10.1 -10 -67.5
    endloop
  endfacet
  facet normal -0 0 -1
    outer loop
      vertex -10.1 10 -67.5
      vertex -14.1 -10 -67.5
      vertex -14.1 10 -67.5
    endloop
  endfacet
  facet normal -1 0 0
    outer loop
      vertex -14.1 -10 -67.5
      vertex -14.1 10 -43.5
      vertex -14.1 10 -67.5
    endloop
  endfacet
  facet normal -1 -0 0
    outer loop
      vertex -14.1 10 -43.5
      vertex -14.1 -10 -67.5
      vertex -14.1 -10 -43.5
    endloop
  endfacet
  facet normal 0 1 0
    outer loop
      vertex 9.21109 10 -48.1696
      vertex 14.1 10 -43.5
      vertex 9.48771 10 -48.0218
    endloop
  endfacet
  facet normal 0 1 0
    outer loop
      vertex -14.1 10 -43.5
      vertex -9.78786 10 -47.9307
      vertex -10.1 10 -47.9
    endloop
  endfacet
  facet normal 0 1 0
    outer loop
      vertex 14.1 10 -43.5
      vertex 9.21109 10 -48.1696
      vertex -14.1 10 -43.5
    endloop
  endfacet
  facet normal 0 1 0
    outer loop
      vertex -14.1 10 -43.5
      vertex -9.48771 10 -48.0218
      vertex -9.78786 10 -47.9307
    endloop
  endfacet
  facet normal 0 1 -0
    outer loop
      vertex -9.21109 10 -48.1696
      vertex -14.1 10 -43.5
      vertex 9.21109 10 -48.1696
    endloop
  endfacet
  facet normal 0 1 0
    outer loop
      vertex -14.1 10 -43.5
      vertex -9.21109 10 -48.1696
      vertex -9.48771 10 -48.0218
    endloop
  endfacet
  facet normal 0 1 -0
    outer loop
      vertex 8.96863 10 -48.3686
      vertex -9.21109 10 -48.1696
      vertex 9.21109 10 -48.1696
    endloop
  endfacet
  facet normal 0 1 0
    outer loop
      vertex 8.96863 10 -48.3686
      vertex -8.96863 10 -48.3686
      vertex -9.21109 10 -48.1696
    endloop
  endfacet
  facet normal 0 1 -0
    outer loop
      vertex 8.76965 10 -48.6111
      vertex -8.96863 10 -48.3686
      vertex 8.96863 10 -48.3686
    endloop
  endfacet
  facet normal 0 1 0
    outer loop
      vertex 8.76965 10 -48.6111
      vertex -8.76965 10 -48.6111
      vertex -8.96863 10 -48.3686
    endloop
  endfacet
  facet normal 0 1 -0
    outer loop
      vertex 8.62179 10 -48.8877
      vertex -8.76965 10 -48.6111
      vertex 8.76965 10 -48.6111
    endloop
  endfacet
  facet normal 0 1 0
    outer loop
      vertex 8.62179 10 -48.8877
      vertex -8.62179 10 -48.8877
      vertex -8.76965 10 -48.6111
    endloop
  endfacet
  facet normal 0 1 -0
    outer loop
      vertex 8.53074 10 -49.1879
      vertex -8.62179 10 -48.8877
      vertex 8.62179 10 -48.8877
    endloop
  endfacet
  facet normal 0 1 0
    outer loop
      vertex 8.53074 10 -49.1879
      vertex -8.53074 10 -49.1879
      vertex -8.62179 10 -48.8877
    endloop
  endfacet
  facet normal 0 1 -0
    outer loop
      vertex 8.5 10 -49.5
      vertex -8.53074 10 -49.1879
      vertex 8.53074 10 -49.1879
    endloop
  endfacet
  facet normal 0 1 0
    outer loop
      vertex -8.53074 10 -49.1879
      vertex 8.5 10 -49.5
      vertex -8.5 10 -49.5
    endloop
  endfacet
  facet normal 0 1 0
    outer loop
      vertex 9.78786 10 -47.9307
      vertex 14.1 10 -43.5
      vertex 10.1 10 -47.9
    endloop
  endfacet
  facet normal 0 1 0
    outer loop
      vertex 14.1 10 -43.5
      vertex 10.4121 10 -47.9307
      vertex 10.1 10 -47.9
    endloop
  endfacet
  facet normal 0 1 0
    outer loop
      vertex 14.1 10 -43.5
      vertex 10.7123 10 -48.0218
      vertex 10.4121 10 -47.9307
    endloop
  endfacet
  facet normal 0 1 0
    outer loop
      vertex 14.1 10 -43.5
      vertex 10.9889 10 -48.1696
      vertex 10.7123 10 -48.0218
    endloop
  endfacet
  facet normal 0 1 0
    outer loop
      vertex 14.1 10 -43.5
      vertex 11.2314 10 -48.3686
      vertex 10.9889 10 -48.1696
    endloop
  endfacet
  facet normal 0 1 0
    outer loop
      vertex 14.1 10 -43.5
      vertex 11.4304 10 -48.6111
      vertex 11.2314 10 -48.3686
    endloop
  endfacet
  facet normal 0 1 0
    outer loop
      vertex 14.1 10 -43.5
      vertex 11.5782 10 -48.8877
      vertex 11.4304 10 -48.6111
    endloop
  endfacet
  facet normal 0 1 0
    outer loop
      vertex 14.1 10 -43.5
      vertex 11.6693 10 -49.1879
      vertex 11.5782 10 -48.8877
    endloop
  endfacet
  facet normal 0 1 0
    outer loop
      vertex 14.1 10 -43.5
      vertex 11.7 10 -49.5
      vertex 11.6693 10 -49.1879
    endloop
  endfacet
  facet normal 0 1 0
    outer loop
      vertex 14.1 10 -43.5
      vertex 11.6693 10 -49.8121
      vertex 11.7 10 -49.5
    endloop
  endfacet
  facet normal 0 1 -0
    outer loop
      vertex 14.1 10 -67.5
      vertex 11.6693 10 -49.8121
      vertex 14.1 10 -43.5
    endloop
  endfacet
  facet normal 0 1 0
    outer loop
      vertex 11.6693 10 -49.8121
      vertex 14.1 10 -67.5
      vertex 11.5782 10 -50.1123
    endloop
  endfacet
  facet normal 0 1 0
    outer loop
      vertex 14.1 10 -67.5
      vertex 11.4304 10 -50.3889
      vertex 11.5782 10 -50.1123
    endloop
  endfacet
  facet normal 0 1 0
    outer loop
      vertex 14.1 10 -67.5
      vertex 11.2314 10 -50.6314
      vertex 11.4304 10 -50.3889
    endloop
  endfacet
  facet normal 0 1 0
    outer loop
      vertex 14.1 10 -67.5
      vertex 10.9889 10 -50.8304
      vertex 11.2314 10 -50.6314
    endloop
  endfacet
  facet normal 0 1 0
    outer loop
      vertex 14.1 10 -67.5
      vertex 10.7123 10 -50.9782
      vertex 10.9889 10 -50.8304
    endloop
  endfacet
  facet normal 0 1 0
    outer loop
      vertex 14.1 10 -67.5
      vertex 10.4121 10 -51.0693
      vertex 10.7123 10 -50.9782
    endloop
  endfacet
  facet normal 0 1 0
    outer loop
      vertex 10.1 10 -67.5
      vertex 10.4121 10 -51.0693
      vertex 14.1 10 -67.5
    endloop
  endfacet
  facet normal 0 1 0
    outer loop
      vertex 10.4121 10 -51.0693
      vertex 10.1 10 -67.5
      vertex 10.1 10 -51.1
    endloop
  endfacet
  facet normal 0 1 0
    outer loop
      vertex 9.48771 10 -48.0218
      vertex 14.1 10 -43.5
      vertex 9.78786 10 -47.9307
    endloop
  endfacet
  facet normal 0 1 -0
    outer loop
      vertex -10.4121 10 -47.9307
      vertex -14.1 10 -43.5
      vertex -10.1 10 -47.9
    endloop
  endfacet
  facet normal 0 1 -0
    outer loop
      vertex -10.7123 10 -48.0218
      vertex -14.1 10 -43.5
      vertex -10.4121 10 -47.9307
    endloop
  endfacet
  facet normal 0 1 -0
    outer loop
      vertex -10.9889 10 -48.1696
      vertex -14.1 10 -43.5
      vertex -10.7123 10 -48.0218
    endloop
  endfacet
  facet normal 0 1 -0
    outer loop
      vertex -11.2314 10 -48.3686
      vertex -14.1 10 -43.5
      vertex -10.9889 10 -48.1696
    endloop
  endfacet
  facet normal 0 1 -0
    outer loop
      vertex -11.4304 10 -48.6111
      vertex -14.1 10 -43.5
      vertex -11.2314 10 -48.3686
    endloop
  endfacet
  facet normal 0 1 -0
    outer loop
      vertex -11.5782 10 -48.8877
      vertex -14.1 10 -43.5
      vertex -11.4304 10 -48.6111
    endloop
  endfacet
  facet normal 0 1 -0
    outer loop
      vertex -11.6693 10 -49.1879
      vertex -14.1 10 -43.5
      vertex -11.5782 10 -48.8877
    endloop
  endfacet
  facet normal 0 1 -0
    outer loop
      vertex -11.7 10 -49.5
      vertex -14.1 10 -43.5
      vertex -11.6693 10 -49.1879
    endloop
  endfacet
  facet normal 0 1 0
    outer loop
      vertex -11.6693 10 -49.8121
      vertex -14.1 10 -43.5
      vertex -11.7 10 -49.5
    endloop
  endfacet
  facet normal 0 1 0
    outer loop
      vertex -14.1 10 -67.5
      vertex -11.6693 10 -49.8121
      vertex -11.5782 10 -50.1123
    endloop
  endfacet
  facet normal 0 1 -0
    outer loop
      vertex -10.1 10 -67.5
      vertex -10.4121 10 -51.0693
      vertex -10.1 10 -51.1
    endloop
  endfacet
  facet normal 0 1 0
    outer loop
      vertex -14.1 10 -67.5
      vertex -10.4121 10 -51.0693
      vertex -10.1 10 -67.5
    endloop
  endfacet
  facet normal 0 1 0
    outer loop
      vertex -10.4121 10 -51.0693
      vertex -14.1 10 -67.5
      vertex -10.7123 10 -50.9782
    endloop
  endfacet
  facet normal 0 1 0
    outer loop
      vertex -10.7123 10 -50.9782
      vertex -14.1 10 -67.5
      vertex -10.9889 10 -50.8304
    endloop
  endfacet
  facet normal 0 1 0
    outer loop
      vertex -10.9889 10 -50.8304
      vertex -14.1 10 -67.5
      vertex -11.2314 10 -50.6314
    endloop
  endfacet
  facet normal 0 1 0
    outer loop
      vertex -11.2314 10 -50.6314
      vertex -14.1 10 -67.5
      vertex -11.4304 10 -50.3889
    endloop
  endfacet
  facet normal 0 1 0
    outer loop
      vertex -11.4304 10 -50.3889
      vertex -14.1 10 -67.5
      vertex -11.5782 10 -50.1123
    endloop
  endfacet
  facet normal 0 1 0
    outer loop
      vertex -11.6693 10 -49.8121
      vertex -14.1 10 -67.5
      vertex -14.1 10 -43.5
    endloop
  endfacet
  facet normal 0 -1 0
    outer loop
      vertex -9.21109 -10 -48.1696
      vertex -14.1 -10 -43.5
      vertex -9.48771 -10 -48.0218
    endloop
  endfacet
  facet normal 0 -1 0
    outer loop
      vertex 14.1 -10 -43.5
      vertex 9.78786 -10 -47.9307
      vertex 10.1 -10 -47.9
    endloop
  endfacet
  facet normal 0 -1 0
    outer loop
      vertex -14.1 -10 -43.5
      vertex -9.21109 -10 -48.1696
      vertex 14.1 -10 -43.5
    endloop
  endfacet
  facet normal 0 -1 0
    outer loop
      vertex 14.1 -10 -43.5
      vertex 9.48771 -10 -48.0218
      vertex 9.78786 -10 -47.9307
    endloop
  endfacet
  facet normal 0 -1 0
    outer loop
      vertex 9.21109 -10 -48.1696
      vertex 14.1 -10 -43.5
      vertex -9.21109 -10 -48.1696
    endloop
  endfacet
  facet normal 0 -1 0
    outer loop
      vertex 14.1 -10 -43.5
      vertex 9.21109 -10 -48.1696
      vertex 9.48771 -10 -48.0218
    endloop
  endfacet
  facet normal 0 -1 0
    outer loop
      vertex -8.96863 -10 -48.3686
      vertex 9.21109 -10 -48.1696
      vertex -9.21109 -10 -48.1696
    endloop
  endfacet
  facet normal 0 -1 0
    outer loop
      vertex -8.96863 -10 -48.3686
      vertex 8.96863 -10 -48.3686
      vertex 9.21109 -10 -48.1696
    endloop
  endfacet
  facet normal 0 -1 0
    outer loop
      vertex -8.76965 -10 -48.6111
      vertex 8.96863 -10 -48.3686
      vertex -8.96863 -10 -48.3686
    endloop
  endfacet
  facet normal 0 -1 0
    outer loop
      vertex -8.76965 -10 -48.6111
      vertex 8.76965 -10 -48.6111
      vertex 8.96863 -10 -48.3686
    endloop
  endfacet
  facet normal 0 -1 0
    outer loop
      vertex -8.62179 -10 -48.8877
      vertex 8.76965 -10 -48.6111
      vertex -8.76965 -10 -48.6111
    endloop
  endfacet
  facet normal 0 -1 0
    outer loop
      vertex -8.62179 -10 -48.8877
      vertex 8.62179 -10 -48.8877
      vertex 8.76965 -10 -48.6111
    endloop
  endfacet
  facet normal 0 -1 0
    outer loop
      vertex -8.53074 -10 -49.1879
      vertex 8.62179 -10 -48.8877
      vertex -8.62179 -10 -48.8877
    endloop
  endfacet
  facet normal 0 -1 0
    outer loop
      vertex -8.53074 -10 -49.1879
      vertex 8.53074 -10 -49.1879
      vertex 8.62179 -10 -48.8877
    endloop
  endfacet
  facet normal 0 -1 0
    outer loop
      vertex -8.5 -10 -49.5
      vertex 8.53074 -10 -49.1879
      vertex -8.53074 -10 -49.1879
    endloop
  endfacet
  facet normal 0 -1 0
    outer loop
      vertex 8.53074 -10 -49.1879
      vertex -8.5 -10 -49.5
      vertex 8.5 -10 -49.5
    endloop
  endfacet
  facet normal 0 -1 0
    outer loop
      vertex -9.78786 -10 -47.9307
      vertex -14.1 -10 -43.5
      vertex -10.1 -10 -47.9
    endloop
  endfacet
  facet normal 0 -1 0
    outer loop
      vertex -14.1 -10 -43.5
      vertex -10.4121 -10 -47.9307
      vertex -10.1 -10 -47.9
    endloop
  endfacet
  facet normal 0 -1 0
    outer loop
      vertex -14.1 -10 -43.5
      vertex -10.7123 -10 -48.0218
      vertex -10.4121 -10 -47.9307
    endloop
  endfacet
  facet normal 0 -1 0
    outer loop
      vertex -14.1 -10 -43.5
      vertex -10.9889 -10 -48.1696
      vertex -10.7123 -10 -48.0218
    endloop
  endfacet
  facet normal 0 -1 0
    outer loop
      vertex -14.1 -10 -43.5
      vertex -11.2314 -10 -48.3686
      vertex -10.9889 -10 -48.1696
    endloop
  endfacet
  facet normal 0 -1 0
    outer loop
      vertex -14.1 -10 -43.5
      vertex -11.4304 -10 -48.6111
      vertex -11.2314 -10 -48.3686
    endloop
  endfacet
  facet normal 0 -1 0
    outer loop
      vertex -14.1 -10 -43.5
      vertex -11.5782 -10 -48.8877
      vertex -11.4304 -10 -48.6111
    endloop
  endfacet
  facet normal 0 -1 0
    outer loop
      vertex -14.1 -10 -43.5
      vertex -11.6693 -10 -49.1879
      vertex -11.5782 -10 -48.8877
    endloop
  endfacet
  facet normal 0 -1 0
    outer loop
      vertex -14.1 -10 -43.5
      vertex -11.7 -10 -49.5
      vertex -11.6693 -10 -49.1879
    endloop
  endfacet
  facet normal 0 -1 0
    outer loop
      vertex -14.1 -10 -43.5
      vertex -11.6693 -10 -49.8121
      vertex -11.7 -10 -49.5
    endloop
  endfacet
  facet normal 0 -1 0
    outer loop
      vertex -14.1 -10 -67.5
      vertex -11.6693 -10 -49.8121
      vertex -14.1 -10 -43.5
    endloop
  endfacet
  facet normal 0 -1 -0
    outer loop
      vertex -11.6693 -10 -49.8121
      vertex -14.1 -10 -67.5
      vertex -11.5782 -10 -50.1123
    endloop
  endfacet
  facet normal 0 -1 0
    outer loop
      vertex -14.1 -10 -67.5
      vertex -11.4304 -10 -50.3889
      vertex -11.5782 -10 -50.1123
    endloop
  endfacet
  facet normal 0 -1 0
    outer loop
      vertex -14.1 -10 -67.5
      vertex -11.2314 -10 -50.6314
      vertex -11.4304 -10 -50.3889
    endloop
  endfacet
  facet normal 0 -1 0
    outer loop
      vertex -14.1 -10 -67.5
      vertex -10.9889 -10 -50.8304
      vertex -11.2314 -10 -50.6314
    endloop
  endfacet
  facet normal 0 -1 0
    outer loop
      vertex -14.1 -10 -67.5
      vertex -10.7123 -10 -50.9782
      vertex -10.9889 -10 -50.8304
    endloop
  endfacet
  facet normal 0 -1 0
    outer loop
      vertex -14.1 -10 -67.5
      vertex -10.4121 -10 -51.0693
      vertex -10.7123 -10 -50.9782
    endloop
  endfacet
  facet normal 0 -1 0
    outer loop
      vertex -10.1 -10 -67.5
      vertex -10.4121 -10 -51.0693
      vertex -14.1 -10 -67.5
    endloop
  endfacet
  facet normal 0 -1 0
    outer loop
      vertex -10.4121 -10 -51.0693
      vertex -10.1 -10 -67.5
      vertex -10.1 -10 -51.1
    endloop
  endfacet
  facet normal 0 -1 0
    outer loop
      vertex -9.48771 -10 -48.0218
      vertex -14.1 -10 -43.5
      vertex -9.78786 -10 -47.9307
    endloop
  endfacet
  facet normal 0 -1 0
    outer loop
      vertex 10.4121 -10 -47.9307
      vertex 14.1 -10 -43.5
      vertex 10.1 -10 -47.9
    endloop
  endfacet
  facet normal 0 -1 0
    outer loop
      vertex 10.7123 -10 -48.0218
      vertex 14.1 -10 -43.5
      vertex 10.4121 -10 -47.9307
    endloop
  endfacet
  facet normal 0 -1 0
    outer loop
      vertex 10.9889 -10 -48.1696
      vertex 14.1 -10 -43.5
      vertex 10.7123 -10 -48.0218
    endloop
  endfacet
  facet normal 0 -1 0
    outer loop
      vertex 11.2314 -10 -48.3686
      vertex 14.1 -10 -43.5
      vertex 10.9889 -10 -48.1696
    endloop
  endfacet
  facet normal 0 -1 0
    outer loop
      vertex 11.4304 -10 -48.6111
      vertex 14.1 -10 -43.5
      vertex 11.2314 -10 -48.3686
    endloop
  endfacet
  facet normal 0 -1 0
    outer loop
      vertex 11.5782 -10 -48.8877
      vertex 14.1 -10 -43.5
      vertex 11.4304 -10 -48.6111
    endloop
  endfacet
  facet normal 0 -1 0
    outer loop
      vertex 11.6693 -10 -49.1879
      vertex 14.1 -10 -43.5
      vertex 11.5782 -10 -48.8877
    endloop
  endfacet
  facet normal 0 -1 0
    outer loop
      vertex 11.7 -10 -49.5
      vertex 14.1 -10 -43.5
      vertex 11.6693 -10 -49.1879
    endloop
  endfacet
  facet normal 0 -1 0
    outer loop
      vertex 11.6693 -10 -49.8121
      vertex 14.1 -10 -43.5
      vertex 11.7 -10 -49.5
    endloop
  endfacet
  facet normal 0 -1 0
    outer loop
      vertex 14.1 -10 -67.5
      vertex 11.6693 -10 -49.8121
      vertex 11.5782 -10 -50.1123
    endloop
  endfacet
  facet normal 0 -1 0
    outer loop
      vertex 10.1 -10 -67.5
      vertex 10.4121 -10 -51.0693
      vertex 10.1 -10 -51.1
    endloop
  endfacet
  facet normal 0 -1 0
    outer loop
      vertex 14.1 -10 -67.5
      vertex 10.4121 -10 -51.0693
      vertex 10.1 -10 -67.5
    endloop
  endfacet
  facet normal 0 -1 0
    outer loop
      vertex 10.4121 -10 -51.0693
      vertex 14.1 -10 -67.5
      vertex 10.7123 -10 -50.9782
    endloop
  endfacet
  facet normal 0 -1 0
    outer loop
      vertex 10.7123 -10 -50.9782
      vertex 14.1 -10 -67.5
      vertex 10.9889 -10 -50.8304
    endloop
  endfacet
  facet normal 0 -1 0
    outer loop
      vertex 10.9889 -10 -50.8304
      vertex 14.1 -10 -67.5
      vertex 11.2314 -10 -50.6314
    endloop
  endfacet
  facet normal 0 -1 0
    outer loop
      vertex 11.2314 -10 -50.6314
      vertex 14.1 -10 -67.5
      vertex 11.4304 -10 -50.3889
    endloop
  endfacet
  facet normal 0 -1 0
    outer loop
      vertex 11.4304 -10 -50.3889
      vertex 14.1 -10 -67.5
      vertex 11.5782 -10 -50.1123
    endloop
  endfacet
  facet normal 0 -1 0
    outer loop
      vertex 11.6693 -10 -49.8121
      vertex 14.1 -10 -67.5
      vertex 14.1 -10 -43.5
    endloop
  endfacet
  facet normal 1 -0 0
    outer loop
      vertex 14.1 -10 -43.5
      vertex 14.1 10 -67.5
      vertex 14.1 10 -43.5
    endloop
  endfacet
  facet normal 1 0 0
    outer loop
      vertex 14.1 10 -67.5
      vertex 14.1 -10 -43.5
      vertex 14.1 -10 -67.5
    endloop
  endfacet
  facet normal 0 0 -1
    outer loop
      vertex 10.1 -10 -67.5
      vertex 14.1 10 -67.5
      vertex 14.1 -10 -67.5
    endloop
  endfacet
  facet normal -0 0 -1
    outer loop
      vertex 14.1 10 -67.5
      vertex 10.1 -10 -67.5
      vertex 10.1 10 -67.5
    endloop
  endfacet
  facet normal -1 0 0
    outer loop
      vertex 10.1 -10 -67.5
      vertex 10.1 10 -51.1
      vertex 10.1 10 -67.5
    endloop
  endfacet
  facet normal -1 -0 0
    outer loop
      vertex 10.1 10 -51.1
      vertex 10.1 -10 -67.5
      vertex 10.1 -10 -51.1
    endloop
  endfacet
  facet normal 0 0 1
    outer loop
      vertex 14.1 10 -43.5
      vertex 2.75 0 -43.5
      vertex 14.1 -10 -43.5
    endloop
  endfacet
  facet normal 0 0 1
    outer loop
      vertex 14.1 10 -43.5
      vertex 2.72647 0.358947 -43.5
      vertex 2.75 0 -43.5
    endloop
  endfacet
  facet normal 0 0 1
    outer loop
      vertex 14.1 10 -43.5
      vertex 2.6563 0.711752 -43.5
      vertex 2.72647 0.358947 -43.5
    endloop
  endfacet
  facet normal 0 0 1
    outer loop
      vertex 14.1 10 -43.5
      vertex 2.54067 1.05238 -43.5
      vertex 2.6563 0.711752 -43.5
    endloop
  endfacet
  facet normal 0 0 1
    outer loop
      vertex 14.1 10 -43.5
      vertex 2.38157 1.375 -43.5
      vertex 2.54067 1.05238 -43.5
    endloop
  endfacet
  facet normal 0 0 1
    outer loop
      vertex 14.1 10 -43.5
      vertex 2.18172 1.67409 -43.5
      vertex 2.38157 1.375 -43.5
    endloop
  endfacet
  facet normal 0 0 1
    outer loop
      vertex 14.1 10 -43.5
      vertex 1.94454 1.94454 -43.5
      vertex 2.18172 1.67409 -43.5
    endloop
  endfacet
  facet normal 0 0 1
    outer loop
      vertex 14.1 10 -43.5
      vertex 1.67409 2.18172 -43.5
      vertex 1.94454 1.94454 -43.5
    endloop
  endfacet
  facet normal 0 0 1
    outer loop
      vertex 14.1 10 -43.5
      vertex 1.375 2.38157 -43.5
      vertex 1.67409 2.18172 -43.5
    endloop
  endfacet
  facet normal 0 0 1
    outer loop
      vertex 14.1 10 -43.5
      vertex 1.05238 2.54067 -43.5
      vertex 1.375 2.38157 -43.5
    endloop
  endfacet
  facet normal 0 0 1
    outer loop
      vertex 14.1 10 -43.5
      vertex 0.711752 2.6563 -43.5
      vertex 1.05238 2.54067 -43.5
    endloop
  endfacet
  facet normal 0 0 1
    outer loop
      vertex 14.1 10 -43.5
      vertex 0.358947 2.72647 -43.5
      vertex 0.711752 2.6563 -43.5
    endloop
  endfacet
  facet normal 0 0 1
    outer loop
      vertex 14.1 10 -43.5
      vertex 0 2.75 -43.5
      vertex 0.358947 2.72647 -43.5
    endloop
  endfacet
  facet normal -0 0 1
    outer loop
      vertex -14.1 10 -43.5
      vertex 0 2.75 -43.5
      vertex 14.1 10 -43.5
    endloop
  endfacet
  facet normal 0 0 1
    outer loop
      vertex 0 2.75 -43.5
      vertex -14.1 10 -43.5
      vertex -0.358947 2.72647 -43.5
    endloop
  endfacet
  facet normal 0 0 1
    outer loop
      vertex -0.358947 2.72647 -43.5
      vertex -14.1 10 -43.5
      vertex -0.711752 2.6563 -43.5
    endloop
  endfacet
  facet normal 0 0 1
    outer loop
      vertex -2.72647 0.358947 -43.5
      vertex -14.1 10 -43.5
      vertex -2.75 0 -43.5
    endloop
  endfacet
  facet normal 0 0 1
    outer loop
      vertex -2.6563 0.711752 -43.5
      vertex -14.1 10 -43.5
      vertex -2.72647 0.358947 -43.5
    endloop
  endfacet
  facet normal 0 0 1
    outer loop
      vertex -2.54067 1.05238 -43.5
      vertex -14.1 10 -43.5
      vertex -2.6563 0.711752 -43.5
    endloop
  endfacet
  facet normal 0 0 1
    outer loop
      vertex -2.38157 1.375 -43.5
      vertex -14.1 10 -43.5
      vertex -2.54067 1.05238 -43.5
    endloop
  endfacet
  facet normal 0 0 1
    outer loop
      vertex -2.18172 1.67409 -43.5
      vertex -14.1 10 -43.5
      vertex -2.38157 1.375 -43.5
    endloop
  endfacet
  facet normal 0 0 1
    outer loop
      vertex -1.94454 1.94454 -43.5
      vertex -14.1 10 -43.5
      vertex -2.18172 1.67409 -43.5
    endloop
  endfacet
  facet normal 0 0 1
    outer loop
      vertex -1.67409 2.18172 -43.5
      vertex -14.1 10 -43.5
      vertex -1.94454 1.94454 -43.5
    endloop
  endfacet
  facet normal 0 0 1
    outer loop
      vertex -1.375 2.38157 -43.5
      vertex -14.1 10 -43.5
      vertex -1.67409 2.18172 -43.5
    endloop
  endfacet
  facet normal 0 0 1
    outer loop
      vertex -1.05238 2.54067 -43.5
      vertex -14.1 10 -43.5
      vertex -1.375 2.38157 -43.5
    endloop
  endfacet
  facet normal 0 0 1
    outer loop
      vertex -0.711752 2.6563 -43.5
      vertex -14.1 10 -43.5
      vertex -1.05238 2.54067 -43.5
    endloop
  endfacet
  facet normal -0 0 1
    outer loop
      vertex 2.72647 -0.358947 -43.5
      vertex 14.1 -10 -43.5
      vertex 2.75 0 -43.5
    endloop
  endfacet
  facet normal -0 0 1
    outer loop
      vertex 2.6563 -0.711752 -43.5
      vertex 14.1 -10 -43.5
      vertex 2.72647 -0.358947 -43.5
    endloop
  endfacet
  facet normal -0 0 1
    outer loop
      vertex 2.54067 -1.05238 -43.5
      vertex 14.1 -10 -43.5
      vertex 2.6563 -0.711752 -43.5
    endloop
  endfacet
  facet normal -0 0 1
    outer loop
      vertex 2.38157 -1.375 -43.5
      vertex 14.1 -10 -43.5
      vertex 2.54067 -1.05238 -43.5
    endloop
  endfacet
  facet normal -0 0 1
    outer loop
      vertex 2.18172 -1.67409 -43.5
      vertex 14.1 -10 -43.5
      vertex 2.38157 -1.375 -43.5
    endloop
  endfacet
  facet normal -0 0 1
    outer loop
      vertex 1.94454 -1.94454 -43.5
      vertex 14.1 -10 -43.5
      vertex 2.18172 -1.67409 -43.5
    endloop
  endfacet
  facet normal -0 0 1
    outer loop
      vertex 1.67409 -2.18172 -43.5
      vertex 14.1 -10 -43.5
      vertex 1.94454 -1.94454 -43.5
    endloop
  endfacet
  facet normal -0 0 1
    outer loop
      vertex 1.375 -2.38157 -43.5
      vertex 14.1 -10 -43.5
      vertex 1.67409 -2.18172 -43.5
    endloop
  endfacet
  facet normal -0 0 1
    outer loop
      vertex 1.05238 -2.54067 -43.5
      vertex 14.1 -10 -43.5
      vertex 1.375 -2.38157 -43.5
    endloop
  endfacet
  facet normal -0 0 1
    outer loop
      vertex 0.711752 -2.6563 -43.5
      vertex 14.1 -10 -43.5
      vertex 1.05238 -2.54067 -43.5
    endloop
  endfacet
  facet normal -0 0 1
    outer loop
      vertex 0.358947 -2.72647 -43.5
      vertex 14.1 -10 -43.5
      vertex 0.711752 -2.6563 -43.5
    endloop
  endfacet
  facet normal -0 0 1
    outer loop
      vertex 0 -2.75 -43.5
      vertex 14.1 -10 -43.5
      vertex 0.358947 -2.72647 -43.5
    endloop
  endfacet
  facet normal 0 0 1
    outer loop
      vertex -14.1 -10 -43.5
      vertex 0 -2.75 -43.5
      vertex -0.358947 -2.72647 -43.5
    endloop
  endfacet
  facet normal 0 0 1
    outer loop
      vertex -14.1 -10 -43.5
      vertex -0.358947 -2.72647 -43.5
      vertex -0.711752 -2.6563 -43.5
    endloop
  endfacet
  facet normal 0 0 1
    outer loop
      vertex -14.1 -10 -43.5
      vertex -0.711752 -2.6563 -43.5
      vertex -1.05238 -2.54067 -43.5
    endloop
  endfacet
  facet normal 0 0 1
    outer loop
      vertex -14.1 -10 -43.5
      vertex -2.75 0 -43.5
      vertex -14.1 10 -43.5
    endloop
  endfacet
  facet normal 0 0 1
    outer loop
      vertex -2.75 0 -43.5
      vertex -14.1 -10 -43.5
      vertex -2.72647 -0.358947 -43.5
    endloop
  endfacet
  facet normal 0 0 1
    outer loop
      vertex -2.72647 -0.358947 -43.5
      vertex -14.1 -10 -43.5
      vertex -2.6563 -0.711752 -43.5
    endloop
  endfacet
  facet normal 0 0 1
    outer loop
      vertex -2.6563 -0.711752 -43.5
      vertex -14.1 -10 -43.5
      vertex -2.54067 -1.05238 -43.5
    endloop
  endfacet
  facet normal 0 0 1
    outer loop
      vertex -2.54067 -1.05238 -43.5
      vertex -14.1 -10 -43.5
      vertex -2.38157 -1.375 -43.5
    endloop
  endfacet
  facet normal 0 0 1
    outer loop
      vertex -2.38157 -1.375 -43.5
      vertex -14.1 -10 -43.5
      vertex -2.18172 -1.67409 -43.5
    endloop
  endfacet
  facet normal 0 0 1
    outer loop
      vertex 0 -2.75 -43.5
      vertex -14.1 -10 -43.5
      vertex 14.1 -10 -43.5
    endloop
  endfacet
  facet normal 0 0 1
    outer loop
      vertex -1.375 -2.38157 -43.5
      vertex -14.1 -10 -43.5
      vertex -1.05238 -2.54067 -43.5
    endloop
  endfacet
  facet normal 0 0 1
    outer loop
      vertex -1.67409 -2.18172 -43.5
      vertex -14.1 -10 -43.5
      vertex -1.375 -2.38157 -43.5
    endloop
  endfacet
  facet normal 0 0 1
    outer loop
      vertex -1.94454 -1.94454 -43.5
      vertex -14.1 -10 -43.5
      vertex -1.67409 -2.18172 -43.5
    endloop
  endfacet
  facet normal 0 0 1
    outer loop
      vertex -2.18172 -1.67409 -43.5
      vertex -14.1 -10 -43.5
      vertex -1.94454 -1.94454 -43.5
    endloop
  endfacet
  facet normal -0.956953 0 -0.290242
    outer loop
      vertex -8.53074 -10 -49.1879
      vertex -8.62179 10 -48.8877
      vertex -8.53074 10 -49.1879
    endloop
  endfacet
  facet normal -0.956953 -0 -0.290242
    outer loop
      vertex -8.62179 10 -48.8877
      vertex -8.53074 -10 -49.1879
      vertex -8.62179 -10 -48.8877
    endloop
  endfacet
  facet normal -0.995184 0 -0.0980198
    outer loop
      vertex -8.5 -10 -49.5
      vertex -8.53074 10 -49.1879
      vertex -8.5 10 -49.5
    endloop
  endfacet
  facet normal -0.995184 -0 -0.0980198
    outer loop
      vertex -8.53074 10 -49.1879
      vertex -8.5 -10 -49.5
      vertex -8.53074 -10 -49.1879
    endloop
  endfacet
  facet normal 0.956909 0 -0.290388
    outer loop
      vertex -11.5782 -10 -48.8877
      vertex -11.6693 10 -49.1879
      vertex -11.5782 10 -48.8877
    endloop
  endfacet
  facet normal 0.956909 0 -0.290388
    outer loop
      vertex -11.6693 10 -49.1879
      vertex -11.5782 -10 -48.8877
      vertex -11.6693 -10 -49.1879
    endloop
  endfacet
  facet normal -0.773065 0 -0.634327
    outer loop
      vertex -8.76965 -10 -48.6111
      vertex -8.96863 10 -48.3686
      vertex -8.76965 10 -48.6111
    endloop
  endfacet
  facet normal -0.773065 -0 -0.634327
    outer loop
      vertex -8.96863 10 -48.3686
      vertex -8.76965 -10 -48.6111
      vertex -8.96863 -10 -48.3686
    endloop
  endfacet
  facet normal -0.097881 0 -0.995198
    outer loop
      vertex -10.1 -10 -47.9
      vertex -9.78786 10 -47.9307
      vertex -9.78786 -10 -47.9307
    endloop
  endfacet
  facet normal -0.097881 0 -0.995198
    outer loop
      vertex -9.78786 10 -47.9307
      vertex -10.1 -10 -47.9
      vertex -10.1 10 -47.9
    endloop
  endfacet
  facet normal 0.881982 -0 0.471283
    outer loop
      vertex -11.5782 -10 -50.1123
      vertex -11.4304 10 -50.3889
      vertex -11.5782 10 -50.1123
    endloop
  endfacet
  facet normal 0.881982 0 0.471283
    outer loop
      vertex -11.4304 10 -50.3889
      vertex -11.5782 -10 -50.1123
      vertex -11.4304 -10 -50.3889
    endloop
  endfacet
  facet normal 0.956909 -0 0.290388
    outer loop
      vertex -11.6693 -10 -49.8121
      vertex -11.5782 10 -50.1123
      vertex -11.6693 10 -49.8121
    endloop
  endfacet
  facet normal 0.956909 0 0.290388
    outer loop
      vertex -11.5782 10 -50.1123
      vertex -11.6693 -10 -49.8121
      vertex -11.5782 -10 -50.1123
    endloop
  endfacet
  facet normal -0.881902 0 -0.471432
    outer loop
      vertex -8.62179 -10 -48.8877
      vertex -8.76965 10 -48.6111
      vertex -8.62179 10 -48.8877
    endloop
  endfacet
  facet normal -0.881902 -0 -0.471432
    outer loop
      vertex -8.76965 10 -48.6111
      vertex -8.62179 -10 -48.8877
      vertex -8.76965 -10 -48.6111
    endloop
  endfacet
  facet normal -0.634428 0 -0.772982
    outer loop
      vertex -9.21109 -10 -48.1696
      vertex -8.96863 10 -48.3686
      vertex -8.96863 -10 -48.3686
    endloop
  endfacet
  facet normal -0.634428 0 -0.772982
    outer loop
      vertex -8.96863 10 -48.3686
      vertex -9.21109 -10 -48.1696
      vertex -9.21109 10 -48.1696
    endloop
  endfacet
  facet normal 0.995197 0 -0.0978934
    outer loop
      vertex -11.6693 -10 -49.1879
      vertex -11.7 10 -49.5
      vertex -11.6693 10 -49.1879
    endloop
  endfacet
  facet normal 0.995197 0 -0.0978934
    outer loop
      vertex -11.7 10 -49.5
      vertex -11.6693 -10 -49.1879
      vertex -11.7 -10 -49.5
    endloop
  endfacet
  facet normal 0.290388 0 -0.956909
    outer loop
      vertex -10.7123 -10 -48.0218
      vertex -10.4121 10 -47.9307
      vertex -10.4121 -10 -47.9307
    endloop
  endfacet
  facet normal 0.290388 0 -0.956909
    outer loop
      vertex -10.4121 10 -47.9307
      vertex -10.7123 -10 -48.0218
      vertex -10.7123 10 -48.0218
    endloop
  endfacet
  facet normal -0.290432 0 -0.956896
    outer loop
      vertex -9.78786 -10 -47.9307
      vertex -9.48771 10 -48.0218
      vertex -9.48771 -10 -48.0218
    endloop
  endfacet
  facet normal -0.290432 0 -0.956896
    outer loop
      vertex -9.48771 10 -48.0218
      vertex -9.78786 -10 -47.9307
      vertex -9.78786 10 -47.9307
    endloop
  endfacet
  facet normal 0.634365 0 0.773033
    outer loop
      vertex -11.2314 10 -50.6314
      vertex -10.9889 -10 -50.8304
      vertex -10.9889 10 -50.8304
    endloop
  endfacet
  facet normal 0.634365 0 0.773033
    outer loop
      vertex -10.9889 -10 -50.8304
      vertex -11.2314 10 -50.6314
      vertex -11.2314 -10 -50.6314
    endloop
  endfacet
  facet normal -0.471257 0 -0.881996
    outer loop
      vertex -9.48771 -10 -48.0218
      vertex -9.21109 10 -48.1696
      vertex -9.21109 -10 -48.1696
    endloop
  endfacet
  facet normal -0.471257 0 -0.881996
    outer loop
      vertex -9.21109 10 -48.1696
      vertex -9.48771 -10 -48.0218
      vertex -9.48771 10 -48.0218
    endloop
  endfacet
  facet normal 0.634365 0 -0.773033
    outer loop
      vertex -11.2314 -10 -48.3686
      vertex -10.9889 10 -48.1696
      vertex -10.9889 -10 -48.1696
    endloop
  endfacet
  facet normal 0.634365 0 -0.773033
    outer loop
      vertex -10.9889 10 -48.1696
      vertex -11.2314 -10 -48.3686
      vertex -11.2314 10 -48.3686
    endloop
  endfacet
  facet normal 0.881982 0 -0.471283
    outer loop
      vertex -11.4304 -10 -48.6111
      vertex -11.5782 10 -48.8877
      vertex -11.4304 10 -48.6111
    endloop
  endfacet
  facet normal 0.881982 0 -0.471283
    outer loop
      vertex -11.5782 10 -48.8877
      vertex -11.4304 -10 -48.6111
      vertex -11.5782 -10 -48.8877
    endloop
  endfacet
  facet normal 0.471283 0 0.881982
    outer loop
      vertex -10.9889 10 -50.8304
      vertex -10.7123 -10 -50.9782
      vertex -10.7123 10 -50.9782
    endloop
  endfacet
  facet normal 0.471283 0 0.881982
    outer loop
      vertex -10.7123 -10 -50.9782
      vertex -10.9889 10 -50.8304
      vertex -10.9889 -10 -50.8304
    endloop
  endfacet
  facet normal 0.995197 -0 0.0978934
    outer loop
      vertex -11.7 -10 -49.5
      vertex -11.6693 10 -49.8121
      vertex -11.7 10 -49.5
    endloop
  endfacet
  facet normal 0.995197 0 0.0978934
    outer loop
      vertex -11.6693 10 -49.8121
      vertex -11.7 -10 -49.5
      vertex -11.6693 -10 -49.8121
    endloop
  endfacet
  facet normal 0.471283 0 -0.881982
    outer loop
      vertex -10.9889 -10 -48.1696
      vertex -10.7123 10 -48.0218
      vertex -10.7123 -10 -48.0218
    endloop
  endfacet
  facet normal 0.471283 0 -0.881982
    outer loop
      vertex -10.7123 10 -48.0218
      vertex -10.9889 -10 -48.1696
      vertex -10.9889 10 -48.1696
    endloop
  endfacet
  facet normal 0.0978934 0 0.995197
    outer loop
      vertex -10.4121 10 -51.0693
      vertex -10.1 -10 -51.1
      vertex -10.1 10 -51.1
    endloop
  endfacet
  facet normal 0.0978934 0 0.995197
    outer loop
      vertex -10.1 -10 -51.1
      vertex -10.4121 10 -51.0693
      vertex -10.4121 -10 -51.0693
    endloop
  endfacet
  facet normal 0.0978934 0 -0.995197
    outer loop
      vertex -10.4121 -10 -47.9307
      vertex -10.1 10 -47.9
      vertex -10.1 -10 -47.9
    endloop
  endfacet
  facet normal 0.0978934 0 -0.995197
    outer loop
      vertex -10.1 10 -47.9
      vertex -10.4121 -10 -47.9307
      vertex -10.4121 10 -47.9307
    endloop
  endfacet
  facet normal 0.773033 -0 0.634365
    outer loop
      vertex -11.4304 -10 -50.3889
      vertex -11.2314 10 -50.6314
      vertex -11.4304 10 -50.3889
    endloop
  endfacet
  facet normal 0.773033 0 0.634365
    outer loop
      vertex -11.2314 10 -50.6314
      vertex -11.4304 -10 -50.3889
      vertex -11.2314 -10 -50.6314
    endloop
  endfacet
  facet normal 0.773033 0 -0.634365
    outer loop
      vertex -11.2314 -10 -48.3686
      vertex -11.4304 10 -48.6111
      vertex -11.2314 10 -48.3686
    endloop
  endfacet
  facet normal 0.773033 0 -0.634365
    outer loop
      vertex -11.4304 10 -48.6111
      vertex -11.2314 -10 -48.3686
      vertex -11.4304 -10 -48.6111
    endloop
  endfacet
  facet normal 0.290388 0 0.956909
    outer loop
      vertex -10.7123 10 -50.9782
      vertex -10.4121 -10 -51.0693
      vertex -10.4121 10 -51.0693
    endloop
  endfacet
  facet normal 0.290388 0 0.956909
    outer loop
      vertex -10.4121 -10 -51.0693
      vertex -10.7123 10 -50.9782
      vertex -10.7123 -10 -50.9782
    endloop
  endfacet
  facet normal -0.0978934 0 -0.995197
    outer loop
      vertex 10.1 -10 -47.9
      vertex 10.4121 10 -47.9307
      vertex 10.4121 -10 -47.9307
    endloop
  endfacet
  facet normal -0.0978934 0 -0.995197
    outer loop
      vertex 10.4121 10 -47.9307
      vertex 10.1 -10 -47.9
      vertex 10.1 10 -47.9
    endloop
  endfacet
  facet normal -0.956909 0 -0.290388
    outer loop
      vertex 11.6693 -10 -49.1879
      vertex 11.5782 10 -48.8877
      vertex 11.6693 10 -49.1879
    endloop
  endfacet
  facet normal -0.956909 -0 -0.290388
    outer loop
      vertex 11.5782 10 -48.8877
      vertex 11.6693 -10 -49.1879
      vertex 11.5782 -10 -48.8877
    endloop
  endfacet
  facet normal -0.995197 0 -0.0978934
    outer loop
      vertex 11.7 -10 -49.5
      vertex 11.6693 10 -49.1879
      vertex 11.7 10 -49.5
    endloop
  endfacet
  facet normal -0.995197 -0 -0.0978934
    outer loop
      vertex 11.6693 10 -49.1879
      vertex 11.7 -10 -49.5
      vertex 11.6693 -10 -49.1879
    endloop
  endfacet
  facet normal -0.773033 0 -0.634365
    outer loop
      vertex 11.4304 -10 -48.6111
      vertex 11.2314 10 -48.3686
      vertex 11.4304 10 -48.6111
    endloop
  endfacet
  facet normal -0.773033 -0 -0.634365
    outer loop
      vertex 11.2314 10 -48.3686
      vertex 11.4304 -10 -48.6111
      vertex 11.2314 -10 -48.3686
    endloop
  endfacet
  facet normal -0.881982 0 -0.471283
    outer loop
      vertex 11.5782 -10 -48.8877
      vertex 11.4304 10 -48.6111
      vertex 11.5782 10 -48.8877
    endloop
  endfacet
  facet normal -0.881982 -0 -0.471283
    outer loop
      vertex 11.4304 10 -48.6111
      vertex 11.5782 -10 -48.8877
      vertex 11.4304 -10 -48.6111
    endloop
  endfacet
  facet normal 0.634428 0 -0.772982
    outer loop
      vertex 8.96863 -10 -48.3686
      vertex 9.21109 10 -48.1696
      vertex 9.21109 -10 -48.1696
    endloop
  endfacet
  facet normal 0.634428 0 -0.772982
    outer loop
      vertex 9.21109 10 -48.1696
      vertex 8.96863 -10 -48.3686
      vertex 8.96863 10 -48.3686
    endloop
  endfacet
  facet normal -0.956909 0 0.290388
    outer loop
      vertex 11.5782 -10 -50.1123
      vertex 11.6693 10 -49.8121
      vertex 11.5782 10 -50.1123
    endloop
  endfacet
  facet normal -0.956909 0 0.290388
    outer loop
      vertex 11.6693 10 -49.8121
      vertex 11.5782 -10 -50.1123
      vertex 11.6693 -10 -49.8121
    endloop
  endfacet
  facet normal -0.471283 0 -0.881982
    outer loop
      vertex 10.7123 -10 -48.0218
      vertex 10.9889 10 -48.1696
      vertex 10.9889 -10 -48.1696
    endloop
  endfacet
  facet normal -0.471283 0 -0.881982
    outer loop
      vertex 10.9889 10 -48.1696
      vertex 10.7123 -10 -48.0218
      vertex 10.7123 10 -48.0218
    endloop
  endfacet
  facet normal -0.290388 0 -0.956909
    outer loop
      vertex 10.4121 -10 -47.9307
      vertex 10.7123 10 -48.0218
      vertex 10.7123 -10 -48.0218
    endloop
  endfacet
  facet normal -0.290388 0 -0.956909
    outer loop
      vertex 10.7123 10 -48.0218
      vertex 10.4121 -10 -47.9307
      vertex 10.4121 10 -47.9307
    endloop
  endfacet
  facet normal -0.634365 0 0.773033
    outer loop
      vertex 10.9889 10 -50.8304
      vertex 11.2314 -10 -50.6314
      vertex 11.2314 10 -50.6314
    endloop
  endfacet
  facet normal -0.634365 0 0.773033
    outer loop
      vertex 11.2314 -10 -50.6314
      vertex 10.9889 10 -50.8304
      vertex 10.9889 -10 -50.8304
    endloop
  endfacet
  facet normal -0.995197 0 0.0978934
    outer loop
      vertex 11.6693 -10 -49.8121
      vertex 11.7 10 -49.5
      vertex 11.6693 10 -49.8121
    endloop
  endfacet
  facet normal -0.995197 0 0.0978934
    outer loop
      vertex 11.7 10 -49.5
      vertex 11.6693 -10 -49.8121
      vertex 11.7 -10 -49.5
    endloop
  endfacet
  facet normal -0.290388 0 0.956909
    outer loop
      vertex 10.4121 10 -51.0693
      vertex 10.7123 -10 -50.9782
      vertex 10.7123 10 -50.9782
    endloop
  endfacet
  facet normal -0.290388 0 0.956909
    outer loop
      vertex 10.7123 -10 -50.9782
      vertex 10.4121 10 -51.0693
      vertex 10.4121 -10 -51.0693
    endloop
  endfacet
  facet normal 0.471257 0 -0.881996
    outer loop
      vertex 9.21109 -10 -48.1696
      vertex 9.48771 10 -48.0218
      vertex 9.48771 -10 -48.0218
    endloop
  endfacet
  facet normal 0.471257 0 -0.881996
    outer loop
      vertex 9.48771 10 -48.0218
      vertex 9.21109 -10 -48.1696
      vertex 9.21109 10 -48.1696
    endloop
  endfacet
  facet normal 0.956953 0 -0.290242
    outer loop
      vertex 8.62179 -10 -48.8877
      vertex 8.53074 10 -49.1879
      vertex 8.62179 10 -48.8877
    endloop
  endfacet
  facet normal 0.956953 0 -0.290242
    outer loop
      vertex 8.53074 10 -49.1879
      vertex 8.62179 -10 -48.8877
      vertex 8.53074 -10 -49.1879
    endloop
  endfacet
  facet normal 0.097881 0 -0.995198
    outer loop
      vertex 9.78786 -10 -47.9307
      vertex 10.1 10 -47.9
      vertex 10.1 -10 -47.9
    endloop
  endfacet
  facet normal 0.097881 0 -0.995198
    outer loop
      vertex 10.1 10 -47.9
      vertex 9.78786 -10 -47.9307
      vertex 9.78786 10 -47.9307
    endloop
  endfacet
  facet normal -0.881982 0 0.471283
    outer loop
      vertex 11.4304 -10 -50.3889
      vertex 11.5782 10 -50.1123
      vertex 11.4304 10 -50.3889
    endloop
  endfacet
  facet normal -0.881982 0 0.471283
    outer loop
      vertex 11.5782 10 -50.1123
      vertex 11.4304 -10 -50.3889
      vertex 11.5782 -10 -50.1123
    endloop
  endfacet
  facet normal -0.773033 0 0.634365
    outer loop
      vertex 11.2314 -10 -50.6314
      vertex 11.4304 10 -50.3889
      vertex 11.2314 10 -50.6314
    endloop
  endfacet
  facet normal -0.773033 0 0.634365
    outer loop
      vertex 11.4304 10 -50.3889
      vertex 11.2314 -10 -50.6314
      vertex 11.4304 -10 -50.3889
    endloop
  endfacet
  facet normal -0.634365 0 -0.773033
    outer loop
      vertex 10.9889 -10 -48.1696
      vertex 11.2314 10 -48.3686
      vertex 11.2314 -10 -48.3686
    endloop
  endfacet
  facet normal -0.634365 0 -0.773033
    outer loop
      vertex 11.2314 10 -48.3686
      vertex 10.9889 -10 -48.1696
      vertex 10.9889 10 -48.1696
    endloop
  endfacet
  facet normal 0.290432 0 -0.956896
    outer loop
      vertex 9.48771 -10 -48.0218
      vertex 9.78786 10 -47.9307
      vertex 9.78786 -10 -47.9307
    endloop
  endfacet
  facet normal 0.290432 0 -0.956896
    outer loop
      vertex 9.78786 10 -47.9307
      vertex 9.48771 -10 -48.0218
      vertex 9.48771 10 -48.0218
    endloop
  endfacet
  facet normal -0.0978934 0 0.995197
    outer loop
      vertex 10.1 10 -51.1
      vertex 10.4121 -10 -51.0693
      vertex 10.4121 10 -51.0693
    endloop
  endfacet
  facet normal -0.0978934 0 0.995197
    outer loop
      vertex 10.4121 -10 -51.0693
      vertex 10.1 10 -51.1
      vertex 10.1 -10 -51.1
    endloop
  endfacet
  facet normal 0.773065 0 -0.634327
    outer loop
      vertex 8.96863 -10 -48.3686
      vertex 8.76965 10 -48.6111
      vertex 8.96863 10 -48.3686
    endloop
  endfacet
  facet normal 0.773065 0 -0.634327
    outer loop
      vertex 8.76965 10 -48.6111
      vertex 8.96863 -10 -48.3686
      vertex 8.76965 -10 -48.6111
    endloop
  endfacet
  facet normal -0.471283 0 0.881982
    outer loop
      vertex 10.7123 10 -50.9782
      vertex 10.9889 -10 -50.8304
      vertex 10.9889 10 -50.8304
    endloop
  endfacet
  facet normal -0.471283 0 0.881982
    outer loop
      vertex 10.9889 -10 -50.8304
      vertex 10.7123 10 -50.9782
      vertex 10.7123 -10 -50.9782
    endloop
  endfacet
  facet normal 0.995184 0 -0.0980198
    outer loop
      vertex 8.53074 -10 -49.1879
      vertex 8.5 10 -49.5
      vertex 8.53074 10 -49.1879
    endloop
  endfacet
  facet normal 0.995184 0 -0.0980198
    outer loop
      vertex 8.5 10 -49.5
      vertex 8.53074 -10 -49.1879
      vertex 8.5 -10 -49.5
    endloop
  endfacet
  facet normal 0.881902 0 -0.471432
    outer loop
      vertex 8.76965 -10 -48.6111
      vertex 8.62179 10 -48.8877
      vertex 8.76965 10 -48.6111
    endloop
  endfacet
  facet normal 0.881902 0 -0.471432
    outer loop
      vertex 8.62179 10 -48.8877
      vertex 8.76965 -10 -48.6111
      vertex 8.62179 -10 -48.8877
    endloop
  endfacet
  facet normal -0.980789 0.195071 0
    outer loop
      vertex 2.6563 -0.711752 -49.5
      vertex 2.72647 -0.358947 -43.5
      vertex 2.72647 -0.358947 -49.5
    endloop
  endfacet
  facet normal -0.980789 0.195071 0
    outer loop
      vertex 2.72647 -0.358947 -43.5
      vertex 2.6563 -0.711752 -49.5
      vertex 2.6563 -0.711752 -43.5
    endloop
  endfacet
  facet normal -0.980789 -0.195071 0
    outer loop
      vertex 2.72647 0.358947 -49.5
      vertex 2.6563 0.711752 -43.5
      vertex 2.6563 0.711752 -49.5
    endloop
  endfacet
  facet normal -0.980789 -0.195071 0
    outer loop
      vertex 2.6563 0.711752 -43.5
      vertex 2.72647 0.358947 -49.5
      vertex 2.72647 0.358947 -43.5
    endloop
  endfacet
  facet normal -0.997858 -0.0654125 0
    outer loop
      vertex 2.75 0 -49.5
      vertex 2.72647 0.358947 -43.5
      vertex 2.72647 0.358947 -49.5
    endloop
  endfacet
  facet normal -0.997858 -0.0654125 0
    outer loop
      vertex 2.72647 0.358947 -43.5
      vertex 2.75 0 -49.5
      vertex 2.75 0 -43.5
    endloop
  endfacet
  facet normal -0.946928 -0.321445 0
    outer loop
      vertex 2.6563 0.711752 -49.5
      vertex 2.54067 1.05238 -43.5
      vertex 2.54067 1.05238 -49.5
    endloop
  endfacet
  facet normal -0.946928 -0.321445 0
    outer loop
      vertex 2.54067 1.05238 -43.5
      vertex 2.6563 0.711752 -49.5
      vertex 2.6563 0.711752 -43.5
    endloop
  endfacet
  facet normal 0.997858 -0.0654125 0
    outer loop
      vertex -2.75 0 -43.5
      vertex -2.72647 0.358947 -49.5
      vertex -2.72647 0.358947 -43.5
    endloop
  endfacet
  facet normal 0.997858 -0.0654125 0
    outer loop
      vertex -2.72647 0.358947 -49.5
      vertex -2.75 0 -43.5
      vertex -2.75 0 -49.5
    endloop
  endfacet
  facet normal -0.442292 0.896871 0
    outer loop
      vertex 1.375 -2.38157 -49.5
      vertex 1.05238 -2.54067 -43.5
      vertex 1.375 -2.38157 -43.5
    endloop
  endfacet
  facet normal -0.442292 0.896871 0
    outer loop
      vertex 1.05238 -2.54067 -43.5
      vertex 1.375 -2.38157 -49.5
      vertex 1.05238 -2.54067 -49.5
    endloop
  endfacet
  facet normal -0.195071 -0.980789 0
    outer loop
      vertex 0.358947 2.72647 -49.5
      vertex 0.711752 2.6563 -43.5
      vertex 0.358947 2.72647 -43.5
    endloop
  endfacet
  facet normal -0.195071 -0.980789 -0
    outer loop
      vertex 0.711752 2.6563 -43.5
      vertex 0.358947 2.72647 -49.5
      vertex 0.711752 2.6563 -49.5
    endloop
  endfacet
  facet normal -0.195071 0.980789 0
    outer loop
      vertex 0.711752 -2.6563 -49.5
      vertex 0.358947 -2.72647 -43.5
      vertex 0.711752 -2.6563 -43.5
    endloop
  endfacet
  facet normal -0.195071 0.980789 0
    outer loop
      vertex 0.358947 -2.72647 -43.5
      vertex 0.711752 -2.6563 -49.5
      vertex 0.358947 -2.72647 -49.5
    endloop
  endfacet
  facet normal -0.0654125 0.997858 0
    outer loop
      vertex 0.358947 -2.72647 -49.5
      vertex 0 -2.75 -43.5
      vertex 0.358947 -2.72647 -43.5
    endloop
  endfacet
  facet normal -0.0654125 0.997858 0
    outer loop
      vertex 0 -2.75 -43.5
      vertex 0.358947 -2.72647 -49.5
      vertex 0 -2.75 -49.5
    endloop
  endfacet
  facet normal 0.659349 -0.751837 0
    outer loop
      vertex -1.94454 1.94454 -49.5
      vertex -1.67409 2.18172 -43.5
      vertex -1.94454 1.94454 -43.5
    endloop
  endfacet
  facet normal 0.659349 -0.751837 0
    outer loop
      vertex -1.67409 2.18172 -43.5
      vertex -1.94454 1.94454 -49.5
      vertex -1.67409 2.18172 -49.5
    endloop
  endfacet
  facet normal 0.831464 -0.555579 0
    outer loop
      vertex -2.38157 1.375 -43.5
      vertex -2.18172 1.67409 -49.5
      vertex -2.18172 1.67409 -43.5
    endloop
  endfacet
  facet normal 0.831464 -0.555579 0
    outer loop
      vertex -2.18172 1.67409 -49.5
      vertex -2.38157 1.375 -43.5
      vertex -2.38157 1.375 -49.5
    endloop
  endfacet
  facet normal -0.321445 -0.946928 0
    outer loop
      vertex 0.711752 2.6563 -49.5
      vertex 1.05238 2.54067 -43.5
      vertex 0.711752 2.6563 -43.5
    endloop
  endfacet
  facet normal -0.321445 -0.946928 -0
    outer loop
      vertex 1.05238 2.54067 -43.5
      vertex 0.711752 2.6563 -49.5
      vertex 1.05238 2.54067 -49.5
    endloop
  endfacet
  facet normal -0.659349 0.751837 0
    outer loop
      vertex 1.94454 -1.94454 -49.5
      vertex 1.67409 -2.18172 -43.5
      vertex 1.94454 -1.94454 -43.5
    endloop
  endfacet
  facet normal -0.659349 0.751837 0
    outer loop
      vertex 1.67409 -2.18172 -43.5
      vertex 1.94454 -1.94454 -49.5
      vertex 1.67409 -2.18172 -49.5
    endloop
  endfacet
  facet normal 0.442292 -0.896871 0
    outer loop
      vertex -1.375 2.38157 -49.5
      vertex -1.05238 2.54067 -43.5
      vertex -1.375 2.38157 -43.5
    endloop
  endfacet
  facet normal 0.442292 -0.896871 0
    outer loop
      vertex -1.05238 2.54067 -43.5
      vertex -1.375 2.38157 -49.5
      vertex -1.05238 2.54067 -49.5
    endloop
  endfacet
  facet normal 0.0654125 0.997858 -0
    outer loop
      vertex 0 -2.75 -49.5
      vertex -0.358947 -2.72647 -43.5
      vertex 0 -2.75 -43.5
    endloop
  endfacet
  facet normal 0.0654125 0.997858 0
    outer loop
      vertex -0.358947 -2.72647 -43.5
      vertex 0 -2.75 -49.5
      vertex -0.358947 -2.72647 -49.5
    endloop
  endfacet
  facet normal -0.751837 0.659349 0
    outer loop
      vertex 1.94454 -1.94454 -49.5
      vertex 2.18172 -1.67409 -43.5
      vertex 2.18172 -1.67409 -49.5
    endloop
  endfacet
  facet normal -0.751837 0.659349 0
    outer loop
      vertex 2.18172 -1.67409 -43.5
      vertex 1.94454 -1.94454 -49.5
      vertex 1.94454 -1.94454 -43.5
    endloop
  endfacet
  facet normal 0.946928 0.321445 0
    outer loop
      vertex -2.54067 -1.05238 -43.5
      vertex -2.6563 -0.711752 -49.5
      vertex -2.6563 -0.711752 -43.5
    endloop
  endfacet
  facet normal 0.946928 0.321445 0
    outer loop
      vertex -2.6563 -0.711752 -49.5
      vertex -2.54067 -1.05238 -43.5
      vertex -2.54067 -1.05238 -49.5
    endloop
  endfacet
  facet normal -0.321445 0.946928 0
    outer loop
      vertex 1.05238 -2.54067 -49.5
      vertex 0.711752 -2.6563 -43.5
      vertex 1.05238 -2.54067 -43.5
    endloop
  endfacet
  facet normal -0.321445 0.946928 0
    outer loop
      vertex 0.711752 -2.6563 -43.5
      vertex 1.05238 -2.54067 -49.5
      vertex 0.711752 -2.6563 -49.5
    endloop
  endfacet
  facet normal 0.321445 -0.946928 0
    outer loop
      vertex -1.05238 2.54067 -49.5
      vertex -0.711752 2.6563 -43.5
      vertex -1.05238 2.54067 -43.5
    endloop
  endfacet
  facet normal 0.321445 -0.946928 0
    outer loop
      vertex -0.711752 2.6563 -43.5
      vertex -1.05238 2.54067 -49.5
      vertex -0.711752 2.6563 -49.5
    endloop
  endfacet
  facet normal 0.555579 -0.831464 0
    outer loop
      vertex -1.67409 2.18172 -49.5
      vertex -1.375 2.38157 -43.5
      vertex -1.67409 2.18172 -43.5
    endloop
  endfacet
  facet normal 0.555579 -0.831464 0
    outer loop
      vertex -1.375 2.38157 -43.5
      vertex -1.67409 2.18172 -49.5
      vertex -1.375 2.38157 -49.5
    endloop
  endfacet
  facet normal 0.946928 -0.321445 0
    outer loop
      vertex -2.6563 0.711752 -43.5
      vertex -2.54067 1.05238 -49.5
      vertex -2.54067 1.05238 -43.5
    endloop
  endfacet
  facet normal 0.946928 -0.321445 0
    outer loop
      vertex -2.54067 1.05238 -49.5
      vertex -2.6563 0.711752 -43.5
      vertex -2.6563 0.711752 -49.5
    endloop
  endfacet
  facet normal -0.896871 -0.442292 0
    outer loop
      vertex 2.54067 1.05238 -49.5
      vertex 2.38157 1.375 -43.5
      vertex 2.38157 1.375 -49.5
    endloop
  endfacet
  facet normal -0.896871 -0.442292 0
    outer loop
      vertex 2.38157 1.375 -43.5
      vertex 2.54067 1.05238 -49.5
      vertex 2.54067 1.05238 -43.5
    endloop
  endfacet
  facet normal 0.195071 -0.980789 0
    outer loop
      vertex -0.711752 2.6563 -49.5
      vertex -0.358947 2.72647 -43.5
      vertex -0.711752 2.6563 -43.5
    endloop
  endfacet
  facet normal 0.195071 -0.980789 0
    outer loop
      vertex -0.358947 2.72647 -43.5
      vertex -0.711752 2.6563 -49.5
      vertex -0.358947 2.72647 -49.5
    endloop
  endfacet
  facet normal -0.659349 -0.751837 0
    outer loop
      vertex 1.67409 2.18172 -49.5
      vertex 1.94454 1.94454 -43.5
      vertex 1.67409 2.18172 -43.5
    endloop
  endfacet
  facet normal -0.659349 -0.751837 -0
    outer loop
      vertex 1.94454 1.94454 -43.5
      vertex 1.67409 2.18172 -49.5
      vertex 1.94454 1.94454 -49.5
    endloop
  endfacet
  facet normal -0.997858 0.0654125 0
    outer loop
      vertex 2.72647 -0.358947 -49.5
      vertex 2.75 0 -43.5
      vertex 2.75 0 -49.5
    endloop
  endfacet
  facet normal -0.997858 0.0654125 0
    outer loop
      vertex 2.75 0 -43.5
      vertex 2.72647 -0.358947 -49.5
      vertex 2.72647 -0.358947 -43.5
    endloop
  endfacet
  facet normal -0.442292 -0.896871 0
    outer loop
      vertex 1.05238 2.54067 -49.5
      vertex 1.375 2.38157 -43.5
      vertex 1.05238 2.54067 -43.5
    endloop
  endfacet
  facet normal -0.442292 -0.896871 -0
    outer loop
      vertex 1.375 2.38157 -43.5
      vertex 1.05238 2.54067 -49.5
      vertex 1.375 2.38157 -49.5
    endloop
  endfacet
  facet normal 0.321445 0.946928 -0
    outer loop
      vertex -0.711752 -2.6563 -49.5
      vertex -1.05238 -2.54067 -43.5
      vertex -0.711752 -2.6563 -43.5
    endloop
  endfacet
  facet normal 0.321445 0.946928 0
    outer loop
      vertex -1.05238 -2.54067 -43.5
      vertex -0.711752 -2.6563 -49.5
      vertex -1.05238 -2.54067 -49.5
    endloop
  endfacet
  facet normal 0.980789 -0.195071 0
    outer loop
      vertex -2.72647 0.358947 -43.5
      vertex -2.6563 0.711752 -49.5
      vertex -2.6563 0.711752 -43.5
    endloop
  endfacet
  facet normal 0.980789 -0.195071 0
    outer loop
      vertex -2.6563 0.711752 -49.5
      vertex -2.72647 0.358947 -43.5
      vertex -2.72647 0.358947 -49.5
    endloop
  endfacet
  facet normal 0.0654125 -0.997858 0
    outer loop
      vertex -0.358947 2.72647 -49.5
      vertex 0 2.75 -43.5
      vertex -0.358947 2.72647 -43.5
    endloop
  endfacet
  facet normal 0.0654125 -0.997858 0
    outer loop
      vertex 0 2.75 -43.5
      vertex -0.358947 2.72647 -49.5
      vertex 0 2.75 -49.5
    endloop
  endfacet
  facet normal -0.946928 0.321445 0
    outer loop
      vertex 2.54067 -1.05238 -49.5
      vertex 2.6563 -0.711752 -43.5
      vertex 2.6563 -0.711752 -49.5
    endloop
  endfacet
  facet normal -0.946928 0.321445 0
    outer loop
      vertex 2.6563 -0.711752 -43.5
      vertex 2.54067 -1.05238 -49.5
      vertex 2.54067 -1.05238 -43.5
    endloop
  endfacet
  facet normal -0.831464 -0.555579 0
    outer loop
      vertex 2.38157 1.375 -49.5
      vertex 2.18172 1.67409 -43.5
      vertex 2.18172 1.67409 -49.5
    endloop
  endfacet
  facet normal -0.831464 -0.555579 0
    outer loop
      vertex 2.18172 1.67409 -43.5
      vertex 2.38157 1.375 -49.5
      vertex 2.38157 1.375 -43.5
    endloop
  endfacet
  facet normal -0.751837 -0.659349 0
    outer loop
      vertex 2.18172 1.67409 -49.5
      vertex 1.94454 1.94454 -43.5
      vertex 1.94454 1.94454 -49.5
    endloop
  endfacet
  facet normal -0.751837 -0.659349 0
    outer loop
      vertex 1.94454 1.94454 -43.5
      vertex 2.18172 1.67409 -49.5
      vertex 2.18172 1.67409 -43.5
    endloop
  endfacet
  facet normal 0.896871 0.442292 0
    outer loop
      vertex -2.38157 -1.375 -43.5
      vertex -2.54067 -1.05238 -49.5
      vertex -2.54067 -1.05238 -43.5
    endloop
  endfacet
  facet normal 0.896871 0.442292 0
    outer loop
      vertex -2.54067 -1.05238 -49.5
      vertex -2.38157 -1.375 -43.5
      vertex -2.38157 -1.375 -49.5
    endloop
  endfacet
  facet normal -0.896871 0.442292 0
    outer loop
      vertex 2.38157 -1.375 -49.5
      vertex 2.54067 -1.05238 -43.5
      vertex 2.54067 -1.05238 -49.5
    endloop
  endfacet
  facet normal -0.896871 0.442292 0
    outer loop
      vertex 2.54067 -1.05238 -43.5
      vertex 2.38157 -1.375 -49.5
      vertex 2.38157 -1.375 -43.5
    endloop
  endfacet
  facet normal 0.751837 0.659349 0
    outer loop
      vertex -1.94454 -1.94454 -43.5
      vertex -2.18172 -1.67409 -49.5
      vertex -2.18172 -1.67409 -43.5
    endloop
  endfacet
  facet normal 0.751837 0.659349 0
    outer loop
      vertex -2.18172 -1.67409 -49.5
      vertex -1.94454 -1.94454 -43.5
      vertex -1.94454 -1.94454 -49.5
    endloop
  endfacet
  facet normal -0.831464 0.555579 0
    outer loop
      vertex 2.18172 -1.67409 -49.5
      vertex 2.38157 -1.375 -43.5
      vertex 2.38157 -1.375 -49.5
    endloop
  endfacet
  facet normal -0.831464 0.555579 0
    outer loop
      vertex 2.38157 -1.375 -43.5
      vertex 2.18172 -1.67409 -49.5
      vertex 2.18172 -1.67409 -43.5
    endloop
  endfacet
  facet normal 0.751837 -0.659349 0
    outer loop
      vertex -2.18172 1.67409 -43.5
      vertex -1.94454 1.94454 -49.5
      vertex -1.94454 1.94454 -43.5
    endloop
  endfacet
  facet normal 0.751837 -0.659349 0
    outer loop
      vertex -1.94454 1.94454 -49.5
      vertex -2.18172 1.67409 -43.5
      vertex -2.18172 1.67409 -49.5
    endloop
  endfacet
  facet normal -0.0654125 -0.997858 0
    outer loop
      vertex 0 2.75 -49.5
      vertex 0.358947 2.72647 -43.5
      vertex 0 2.75 -43.5
    endloop
  endfacet
  facet normal -0.0654125 -0.997858 -0
    outer loop
      vertex 0.358947 2.72647 -43.5
      vertex 0 2.75 -49.5
      vertex 0.358947 2.72647 -49.5
    endloop
  endfacet
  facet normal -0.555579 -0.831464 0
    outer loop
      vertex 1.375 2.38157 -49.5
      vertex 1.67409 2.18172 -43.5
      vertex 1.375 2.38157 -43.5
    endloop
  endfacet
  facet normal -0.555579 -0.831464 -0
    outer loop
      vertex 1.67409 2.18172 -43.5
      vertex 1.375 2.38157 -49.5
      vertex 1.67409 2.18172 -49.5
    endloop
  endfacet
  facet normal 0.442292 0.896871 -0
    outer loop
      vertex -1.05238 -2.54067 -49.5
      vertex -1.375 -2.38157 -43.5
      vertex -1.05238 -2.54067 -43.5
    endloop
  endfacet
  facet normal 0.442292 0.896871 0
    outer loop
      vertex -1.375 -2.38157 -43.5
      vertex -1.05238 -2.54067 -49.5
      vertex -1.375 -2.38157 -49.5
    endloop
  endfacet
  facet normal 0.831464 0.555579 0
    outer loop
      vertex -2.18172 -1.67409 -43.5
      vertex -2.38157 -1.375 -49.5
      vertex -2.38157 -1.375 -43.5
    endloop
  endfacet
  facet normal 0.831464 0.555579 0
    outer loop
      vertex -2.38157 -1.375 -49.5
      vertex -2.18172 -1.67409 -43.5
      vertex -2.18172 -1.67409 -49.5
    endloop
  endfacet
  facet normal 0.980789 0.195071 0
    outer loop
      vertex -2.6563 -0.711752 -43.5
      vertex -2.72647 -0.358947 -49.5
      vertex -2.72647 -0.358947 -43.5
    endloop
  endfacet
  facet normal 0.980789 0.195071 0
    outer loop
      vertex -2.72647 -0.358947 -49.5
      vertex -2.6563 -0.711752 -43.5
      vertex -2.6563 -0.711752 -49.5
    endloop
  endfacet
  facet normal 0.195071 0.980789 -0
    outer loop
      vertex -0.358947 -2.72647 -49.5
      vertex -0.711752 -2.6563 -43.5
      vertex -0.358947 -2.72647 -43.5
    endloop
  endfacet
  facet normal 0.195071 0.980789 0
    outer loop
      vertex -0.711752 -2.6563 -43.5
      vertex -0.358947 -2.72647 -49.5
      vertex -0.711752 -2.6563 -49.5
    endloop
  endfacet
  facet normal 0.659349 0.751837 -0
    outer loop
      vertex -1.67409 -2.18172 -49.5
      vertex -1.94454 -1.94454 -43.5
      vertex -1.67409 -2.18172 -43.5
    endloop
  endfacet
  facet normal 0.659349 0.751837 0
    outer loop
      vertex -1.94454 -1.94454 -43.5
      vertex -1.67409 -2.18172 -49.5
      vertex -1.94454 -1.94454 -49.5
    endloop
  endfacet
  facet normal 0.896871 -0.442292 0
    outer loop
      vertex -2.54067 1.05238 -43.5
      vertex -2.38157 1.375 -49.5
      vertex -2.38157 1.375 -43.5
    endloop
  endfacet
  facet normal 0.896871 -0.442292 0
    outer loop
      vertex -2.38157 1.375 -49.5
      vertex -2.54067 1.05238 -43.5
      vertex -2.54067 1.05238 -49.5
    endloop
  endfacet
  facet normal 0.997858 0.0654125 0
    outer loop
      vertex -2.72647 -0.358947 -43.5
      vertex -2.75 0 -49.5
      vertex -2.75 0 -43.5
    endloop
  endfacet
  facet normal 0.997858 0.0654125 0
    outer loop
      vertex -2.75 0 -49.5
      vertex -2.72647 -0.358947 -43.5
      vertex -2.72647 -0.358947 -49.5
    endloop
  endfacet
  facet normal -0.555579 0.831464 0
    outer loop
      vertex 1.67409 -2.18172 -49.5
      vertex 1.375 -2.38157 -43.5
      vertex 1.67409 -2.18172 -43.5
    endloop
  endfacet
  facet normal -0.555579 0.831464 0
    outer loop
      vertex 1.375 -2.38157 -43.5
      vertex 1.67409 -2.18172 -49.5
      vertex 1.375 -2.38157 -49.5
    endloop
  endfacet
  facet normal 0.555579 0.831464 -0
    outer loop
      vertex -1.375 -2.38157 -49.5
      vertex -1.67409 -2.18172 -43.5
      vertex -1.375 -2.38157 -43.5
    endloop
  endfacet
  facet normal 0.555579 0.831464 0
    outer loop
      vertex -1.67409 -2.18172 -43.5
      vertex -1.375 -2.38157 -49.5
      vertex -1.67409 -2.18172 -49.5
    endloop
  endfacet
endsolid OpenSCAD_Model
